<?xml version="1.0" standalone="no"?>
<!DOCTYPE svg PUBLIC "-//W3C//DTD SVG 20010904//EN"
 "http://www.w3.org/TR/2001/REC-SVG-20010904/DTD/svg10.dtd">
<svg version="1.0" xmlns="http://www.w3.org/2000/svg"
 width="1200.000000pt" height="1200.000000pt" viewBox="0 0 1200.000000 1200.000000"
 preserveAspectRatio="xMidYMid meet">
<metadata>
Created by potrace 1.14, written by Peter Selinger 2001-2017
</metadata>
<g transform="translate(0.000000,1200.000000) scale(0.100000,-0.100000)"
fill="#000000" stroke="none">
<path d="M0 6000 l0 -6000 6000 0 6000 0 0 6000 0 6000 -6000 0 -6000 0 0
-6000z m6350 3906 c467 -76 900 -269 1273 -570 120 -96 341 -324 433 -447 370
-490 554 -1035 554 -1639 0 -424 -89 -807 -274 -1185 -214 -435 -516 -778
-930 -1056 -158 -106 -383 -222 -551 -284 -114 -43 -355 -105 -495 -129 -556
-94 -1146 -3 -1651 255 -525 267 -968 721 -1214 1242 -352 746 -346 1605 15
2342 138 282 277 473 514 711 234 234 421 371 693 508 272 136 536 218 838
260 164 23 182 24 420 21 176 -3 251 -9 375 -29z m-3677 -5862 c18 -9 49 -32
69 -51 44 -43 63 -39 86 17 11 25 24 40 35 40 9 0 17 -1 17 -2 0 -2 -18 -88
-40 -192 -22 -104 -40 -193 -40 -198 0 -4 -8 -8 -19 -8 -16 0 -19 11 -24 98
-7 119 -20 162 -67 215 -34 37 -41 41 -98 45 -49 3 -70 0 -106 -18 -126 -61
-230 -275 -256 -530 -16 -144 0 -227 51 -276 25 -24 39 -29 98 -32 58 -4 75 0
121 23 72 36 151 119 190 199 29 58 34 64 54 56 25 -10 24 -17 -17 -100 -42
-83 -120 -163 -194 -198 -75 -34 -193 -43 -258 -17 -84 32 -150 120 -174 233
-54 255 129 600 368 693 59 23 161 24 204 3z m533 -21 c-17 -57 -156 -564
-156 -570 0 -5 13 15 28 42 40 73 85 135 126 175 31 30 43 34 87 35 45 0 54
-4 73 -28 17 -24 21 -42 20 -105 0 -70 -5 -89 -56 -207 -30 -71 -58 -141 -61
-154 -7 -28 8 -61 27 -61 24 0 81 73 111 143 20 46 35 67 45 64 20 -4 15 -28
-20 -102 -40 -82 -83 -132 -126 -144 -79 -22 -119 29 -112 143 4 57 15 96 58
196 29 69 55 144 58 168 5 42 4 42 -27 42 -21 0 -43 -11 -68 -34 -67 -60 -183
-277 -234 -433 l-23 -73 -43 0 c-30 0 -43 4 -43 14 0 8 49 193 109 412 60 220
113 411 116 427 l7 27 -66 0 c-59 0 -66 2 -66 20 0 19 7 20 121 20 110 0 120
-2 115 -17z m3046 -328 l3 -345 189 345 189 345 155 0 c136 0 153 -2 148 -16
-3 -9 -6 -20 -6 -25 0 -5 -26 -9 -59 -9 -38 0 -63 -5 -70 -14 -16 -19 -222
-777 -216 -793 3 -8 25 -13 60 -13 52 0 55 -1 55 -25 l0 -25 -196 0 -195 0 3
23 c3 20 9 22 65 25 47 2 65 7 72 20 5 9 54 187 111 396 56 208 104 386 107
395 13 45 -45 -57 -263 -451 -183 -331 -240 -428 -255 -428 -18 0 -19 14 -19
445 0 278 -4 445 -10 445 -5 0 -14 -19 -20 -42 -7 -24 -49 -180 -95 -348 -46
-168 -87 -324 -91 -348 -9 -58 12 -82 73 -82 39 0 43 -2 43 -25 l0 -25 -181 0
c-161 0 -180 2 -175 16 3 9 6 20 6 25 0 5 21 9 46 9 56 0 76 10 103 54 21 33
211 708 211 747 0 17 -8 19 -65 19 -56 0 -65 2 -65 18 0 10 3 22 7 25 3 4 80
7 170 7 l163 0 2 -345z m-986 278 c-4 -16 -21 -82 -40 -148 l-33 -120 69 -3
c65 -3 69 -4 66 -25 -3 -20 -10 -22 -77 -27 l-74 -5 -49 -180 c-69 -255 -72
-273 -58 -290 34 -41 95 17 125 116 20 64 30 78 47 61 22 -22 -54 -200 -97
-228 -40 -26 -102 -22 -133 10 -43 42 -37 130 21 336 26 90 47 168 47 172 0 4
-18 8 -41 8 -36 0 -40 2 -37 23 3 19 10 22 49 25 l47 3 31 117 c54 197 46 182
98 182 43 0 44 -1 39 -27z m3340 0 c-4 -16 -21 -82 -40 -148 l-33 -120 69 -3
c65 -3 69 -4 66 -25 -3 -20 -10 -22 -77 -27 l-74 -5 -49 -180 c-69 -255 -72
-273 -58 -290 34 -41 95 17 125 116 20 64 30 78 47 61 22 -22 -54 -200 -97
-228 -40 -26 -102 -22 -133 10 -43 42 -37 130 21 336 26 90 47 168 47 172 0 4
-18 8 -41 8 -36 0 -40 2 -37 23 3 19 10 22 49 25 l47 3 31 117 c54 197 46 182
98 182 43 0 44 -1 39 -27z m-4686 -290 c17 -14 36 -38 42 -52 11 -25 11 -25
22 19 11 43 14 45 50 48 21 2 42 0 47 -5 5 -5 -18 -106 -51 -226 -67 -247 -75
-299 -47 -305 34 -7 88 66 127 171 12 33 36 31 32 -3 -4 -37 -64 -149 -100
-184 -53 -54 -115 -56 -143 -5 -6 12 -14 42 -18 66 l-6 45 -31 -45 c-50 -70
-97 -101 -155 -101 -92 0 -141 63 -140 182 0 131 40 237 122 326 88 97 185
124 249 69z m553 -4 c20 -28 27 -112 13 -179 -7 -32 -4 -29 29 25 50 82 102
143 139 166 45 28 97 25 127 -7 21 -23 24 -34 24 -107 -1 -77 -4 -90 -54 -207
-65 -151 -73 -183 -55 -207 12 -17 15 -17 41 -3 19 11 42 43 73 107 42 86 61
106 75 83 8 -13 -56 -148 -90 -189 -42 -49 -86 -65 -128 -47 -79 33 -77 147 6
343 73 170 77 203 26 203 -51 0 -114 -76 -196 -236 -39 -77 -83 -176 -98 -221
l-27 -83 -44 0 c-24 0 -44 4 -44 9 0 5 27 110 60 233 61 228 72 298 46 298
-34 0 -90 -77 -125 -172 -11 -30 -41 -38 -41 -12 0 36 71 162 110 198 34 31
48 37 77 34 25 -2 42 -11 56 -29z m2787 4 c17 -14 36 -38 42 -52 11 -25 11
-25 22 19 11 43 14 45 50 48 21 2 42 0 47 -5 5 -5 -18 -106 -51 -226 -67 -247
-75 -299 -47 -305 34 -7 88 66 127 171 12 33 36 31 32 -3 -4 -37 -64 -149
-100 -184 -53 -54 -115 -56 -143 -5 -6 12 -14 42 -18 66 l-6 45 -31 -45 c-50
-70 -97 -101 -155 -101 -92 0 -141 63 -140 182 0 131 40 237 122 326 88 97
185 124 249 69z m553 -4 c20 -28 27 -112 13 -179 -7 -32 -4 -29 29 25 50 82
102 143 139 166 45 28 97 25 127 -7 21 -23 24 -34 24 -107 -1 -77 -4 -90 -54
-207 -65 -151 -73 -183 -55 -207 12 -17 15 -17 41 -3 19 11 42 43 73 107 42
86 61 106 75 83 8 -13 -56 -148 -90 -189 -42 -49 -86 -65 -128 -47 -79 33 -77
147 6 343 73 170 77 203 26 203 -51 0 -114 -76 -196 -236 -39 -77 -83 -176
-98 -221 l-27 -83 -44 0 c-24 0 -44 4 -44 9 0 5 27 110 60 233 61 228 72 298
46 298 -34 0 -90 -77 -125 -172 -11 -30 -41 -38 -41 -12 0 36 71 162 110 198
34 31 48 37 77 34 25 -2 42 -11 56 -29z m1144 5 c10 -16 19 -53 21 -90 l4 -64
34 58 c70 117 143 153 199 97 67 -66 -5 -188 -86 -145 -21 12 -26 59 -8 92 15
28 3 35 -22 12 -50 -45 -152 -259 -206 -433 l-28 -91 -48 0 c-41 0 -48 2 -43
18 25 80 116 430 121 465 8 49 -2 63 -35 52 -21 -7 -80 -98 -101 -157 -9 -26
-19 -38 -32 -38 -21 0 -19 13 15 90 44 103 103 160 165 160 24 0 37 -7 50 -26z
m679 10 c14 -10 33 -33 44 -53 l18 -36 12 48 12 47 44 0 c33 0 44 -4 44 -16 0
-8 -25 -108 -56 -221 -64 -236 -75 -303 -51 -303 8 0 22 3 31 6 20 8 69 86 91
147 16 43 32 57 47 41 10 -9 -32 -103 -71 -164 -82 -126 -191 -111 -191 27 l0
45 -45 -60 c-51 -70 -92 -95 -153 -95 -46 0 -81 20 -116 67 -30 40 -29 174 2
273 57 182 236 313 338 247z"/>
<path d="M5870 9823 c-431 -17 -781 -107 -1137 -293 -241 -126 -431 -266 -629
-464 -507 -509 -775 -1185 -751 -1896 17 -491 158 -934 425 -1335 172 -258
340 -439 578 -623 353 -273 724 -430 1199 -509 138 -22 583 -25 710 -4 274 45
452 94 661 182 569 240 1035 681 1304 1233 92 188 139 312 180 471 116 451
116 879 0 1330 -106 413 -347 831 -660 1146 -363 367 -818 611 -1328 714 -151
30 -416 53 -552 48z m65 -892 c129 -59 182 -223 112 -344 -40 -68 -137 -127
-208 -127 -40 0 -37 23 7 73 52 57 76 118 75 187 -1 70 -11 99 -57 162 -20 26
-33 52 -29 58 10 15 56 12 100 -9z m141 -715 c91 -42 160 -135 189 -257 29
-123 12 -271 -41 -369 -35 -64 -70 -101 -90 -93 -17 6 -16 21 11 93 69 184
-24 398 -182 417 -186 21 -314 -249 -212 -449 20 -40 20 -42 3 -55 -15 -11
-21 -10 -42 10 -28 26 -68 102 -88 166 -49 162 -11 357 92 471 87 97 232 123
360 66z m-662 -521 c-1 -17 -14 -64 -30 -105 -23 -61 -29 -95 -32 -186 -6
-174 30 -272 144 -394 122 -129 264 -199 421 -208 81 -4 103 -1 180 23 216 66
382 233 429 431 27 113 9 264 -45 388 -40 90 -3 116 53 39 184 -254 195 -585
26 -832 -150 -222 -368 -343 -615 -344 -124 0 -193 16 -310 73 -206 100 -338
253 -407 470 -19 63 -23 95 -22 200 1 108 5 136 28 205 29 84 80 185 123 242
32 41 59 40 57 -2z m1325 -1326 c136 -22 238 -95 296 -213 103 -207 18 -469
-183 -568 -60 -30 -75 -33 -152 -32 -103 1 -215 38 -215 70 0 17 9 19 78 21
92 2 136 15 195 55 141 96 154 329 22 396 -50 25 -139 30 -218 11 -26 -6 -281
-126 -567 -265 -595 -290 -623 -300 -789 -291 -90 5 -106 9 -182 46 -129 65
-195 157 -216 304 -18 132 22 255 114 353 77 82 148 114 256 114 119 0 248
-46 226 -81 -3 -5 -40 -9 -83 -9 -104 0 -163 -21 -221 -79 -56 -57 -78 -102
-86 -179 -6 -51 -3 -68 18 -114 22 -46 33 -59 73 -78 55 -27 165 -31 231 -10
22 7 255 118 519 248 264 129 507 246 540 259 113 47 228 61 344 42z"/>
<path d="M3803 3655 c-61 -43 -140 -236 -150 -366 -7 -90 0 -124 27 -139 27
-14 53 -5 95 32 87 76 176 324 151 422 -15 59 -76 84 -123 51z"/>
<path d="M7143 3655 c-61 -43 -140 -236 -150 -366 -7 -90 0 -124 27 -139 27
-14 53 -5 95 32 87 76 176 324 151 422 -15 59 -76 84 -123 51z"/>
<path d="M9511 3632 c-49 -51 -88 -135 -117 -249 -35 -139 -30 -208 16 -233
30 -16 85 14 126 69 72 98 135 305 115 378 -23 83 -81 97 -140 35z"/>
</g>
</svg>
